<?xml version="1.0" encoding="UTF-8" standalone="no"?>
<svg
   class="ionicon"
   viewBox="0 0 262144 262144"
   version="1.1"
   id="svg1"
   width="262144"
   height="262144"
   xmlns="http://www.w3.org/2000/svg"
   xmlns:svg="http://www.w3.org/2000/svg">
  <defs
     id="defs1" />
  <path
     style="fill:#ffffff;fill-opacity:1;stroke:#000000;stroke-width:1.74057"
     d="M 233.25736,469.81087 C 187.45197,446.88066 142.0515,409.88271 109.31359,368.80612 93.806582,349.34929 80.892073,328.47005 68.847624,303.38366 43.44444,250.47348 32.008381,195.76255 33.363164,133.62347 34.125463,98.659526 32.281427,100.58122 73.103963,92.20901 134.36876,79.644334 168.79174,68.98947 221.92274,46.14549 l 33.07084,-14.218999 6.96229,2.604022 c 3.82925,1.432211 19.88601,8.038704 35.68169,14.681094 49.06839,20.634217 88.33679,32.467771 142.72679,43.010803 41.05809,7.95876 39.06728,4.937517 37.80108,57.36639 -0.96838,40.09751 -3.16436,57.77976 -11.03374,88.8451 -24.93597,98.43781 -93.65649,182.85731 -188.2333,231.23452 -10.60055,5.42233 -20.83928,9.85876 -22.75274,9.85876 -1.91344,0 -12.21318,-4.37234 -22.88829,-9.71631 z m 35.27529,-28.78782 c 34.36215,-17.24084 73.15712,-47.87356 99.9858,-78.94932 46.26626,-53.59039 72.49569,-117.28445 78.85947,-191.49782 1.06716,-12.44508 1.68801,-27.71858 1.37965,-33.94112 l -0.56066,-11.31371 -26.10855,-5.43895 C 370.14498,109.06126 335.18024,98.17136 285.01458,77.189996 L 255.85618,64.994739 233.04442,74.73043 C 178.34393,98.075718 141.9698,109.09339 69.622822,124.23062 l -6.091997,1.27463 0.4515,23.40562 c 1.497601,77.63511 25.575335,146.74439 70.647965,202.77781 15.52509,19.30049 47.72501,49.84282 66.88028,63.43739 16.96886,12.04287 50.17184,31.33027 53.93462,31.33027 1.2422,0 7.13154,-2.44498 13.08746,-5.43329 z"
     id="path3" />
</svg>
