<?xml version="1.0" encoding="UTF-8" standalone="no"?>
<svg
   class="ionicon"
   viewBox="0 0 512 512"
   version="1.1"
   id="svg1"
   sodipodi:docname="shield-outline.svg"
   inkscape:export-filename="shield-outline.png"
   inkscape:export-xdpi="96"
   inkscape:export-ydpi="96"
   inkscape:version="1.4 (e7c3feb1, 2024-10-09)"
   xmlns:inkscape="http://www.inkscape.org/namespaces/inkscape"
   xmlns:sodipodi="http://sodipodi.sourceforge.net/DTD/sodipodi-0.dtd"
   xmlns="http://www.w3.org/2000/svg"
   xmlns:svg="http://www.w3.org/2000/svg">
  <defs
     id="defs1" />
  <sodipodi:namedview
     id="namedview1"
     pagecolor="#ffffff"
     bordercolor="#000000"
     borderopacity="0.25"
     inkscape:showpageshadow="2"
     inkscape:pageopacity="0.0"
     inkscape:pagecheckerboard="0"
     inkscape:deskcolor="#d1d1d1"
     inkscape:zoom="1.1490485"
     inkscape:cx="273.70472"
     inkscape:cy="241.50416"
     inkscape:window-width="1104"
     inkscape:window-height="250"
     inkscape:window-x="2004"
     inkscape:window-y="264"
     inkscape:window-maximized="0"
     inkscape:current-layer="svg1" />
  <path
     d="M463.1 112.37C373.68 96.33 336.71 84.45 256 48c-80.71 36.45-117.68 48.33-207.1 64.37C32.7 369.13 240.58 457.79 256 464c15.42-6.21 223.3-94.87 207.1-351.63z"
     fill="none"
     stroke="currentColor"
     stroke-linecap="round"
     stroke-linejoin="round"
     stroke-width="32"
     id="path1" />
  <path
     style="fill:#ffffff;fill-opacity:1;stroke:#000000;stroke-width:0.870285"
     d="M 253.25301,479.30833 C 249.85841,478.76582 225.56104,466.76757 213.81578,459.8339 122.16907,405.73138 60.851471,321.28362 40.474549,221.10507 c -6.273283,-30.84119 -9.178901,-67.9485 -7.649343,-97.68886 0.775669,-15.08191 0.925365,-15.99755 3.169962,-19.38936 1.446785,-2.18624 3.771807,-4.210331 6.025327,-5.245459 2.018216,-0.927043 12.285306,-3.284188 22.815758,-5.238102 C 132.32112,81.021553 172.79877,68.230121 240.00196,38.188774 c 8.64936,-3.86646 13.49343,-5.553076 15.94876,-5.553076 2.55145,0 8.50082,2.198246 21.51877,7.951021 64.3385,28.431888 100.22723,39.584191 171.91209,53.421097 22.40515,4.324734 24.52455,5.276923 27.83997,12.507734 1.7527,3.82257 1.8395,5.35768 1.8508,32.73009 0.0161,39.03224 -2.74723,63.63143 -10.85171,96.60167 -12.20701,49.65993 -34.82796,95.25631 -67.57041,136.19964 -10.25034,12.8177 -36.18324,39.36038 -48.61984,49.76305 -25.47027,21.30478 -57.06953,41.66231 -82.0067,52.83206 -9.66877,4.33079 -13.02565,5.2648 -16.77068,4.66627 z m 15.14226,-38.34674 c 56.31858,-29.29137 104.24745,-74.59495 135.78114,-128.34379 6.9024,-11.76506 17.83307,-34.64737 22.57296,-47.2543 14.35189,-38.17253 22.00922,-83.07355 21.27857,-124.77326 l -0.26617,-15.19083 -7.83257,-1.53167 C 370.42394,110.27579 332.9019,98.690358 271.78386,71.950609 L 255.93844,65.018081 239.4163,72.26222 c -56.8721,24.935621 -94.84991,36.97149 -154.998629,49.12196 l -20.451704,4.13139 -0.272762,12.52189 c -0.702458,32.24819 4.671169,72.70301 13.808302,103.95445 22.475852,76.87343 73.197713,142.34422 144.682083,186.75281 11.73632,7.29102 31.94772,18.14677 33.78593,18.14677 0.56337,0 6.15496,-2.66845 12.42575,-5.9299 z"
     id="path2" />
</svg>
